<svg width="400" height="400" viewBox="0 0 400 400" fill="none" xmlns="http://www.w3.org/2000/svg">
<path d="M383.092 134.87C383.281 134.991 383.265 135.271 383.065 135.371C381.496 136.152 379.946 136.973 378.34 137.685C366.014 143.158 354.218 149.532 344.195 158.69C340.769 161.82 337.671 165.373 334.77 169.01C332.018 172.457 331.098 176.678 331.14 181.06C331.148 181.736 331.246 182.412 331.358 183.154C331.472 183.908 332.119 184.476 332.882 184.476H346.209C347.045 184.476 347.727 185.156 347.678 185.99C347.37 191.322 345.48 195.92 342.237 199.776C337.844 204.992 336.053 211.193 333.982 217.418C330.961 226.492 330.758 235.847 331.474 245.13C332.221 254.807 328.639 262.522 322.861 269.719C318.324 275.371 313.93 281.142 309.417 286.818C304.791 292.637 303.066 299.208 303.562 306.595C304.2 316.063 306.421 325.191 308.492 334.409C310.182 341.933 310.737 349.708 311.758 357.376C311.787 357.592 311.79 357.811 311.778 358.061C311.726 359.121 310.558 359.797 309.573 359.403C308.087 358.809 306.734 358.279 305.585 357.459C299.825 353.351 296.279 347.496 293.378 341.206C291.979 338.17 290.622 335.114 289.263 332.095C289.1 331.733 288.797 331.449 288.427 331.303C284.532 329.76 283.38 328.775 282.269 326.142C282.029 325.573 281.488 325.181 280.87 325.175C274.797 325.112 268.756 325.722 262.94 327.737C252.517 331.344 242.077 334.916 231.803 338.904C220.354 343.352 208.505 344.253 196.578 342.816C185.158 341.438 173.87 338.958 162.516 337.032C158.708 336.388 154.852 336.007 151.025 335.428C150.076 335.285 149.133 334.916 148.261 334.492C141.385 331.142 134.591 327.612 127.649 324.404C120.122 320.928 114.307 323.409 111.52 331.124C110.374 334.296 109.693 337.629 108.583 340.812C106.887 345.672 105.114 350.519 103.162 355.277C101.818 358.559 99.2952 360.285 95.5903 360.844C94.6768 360.982 93.9229 360.191 93.9984 359.27C94.2483 356.224 94.4161 353.28 94.9127 350.394C95.9753 344.235 97.7661 338.177 98.4168 331.982C99.0615 325.794 98.7451 319.497 98.6735 313.255C98.6615 312.349 97.8258 311.299 97.1154 310.572C92.0235 305.397 86.9316 300.221 81.7144 295.177C76.1927 289.835 70.8262 284.314 67.1371 277.565C63.7823 271.43 58.5411 270.553 52.7329 271.686C43.3848 273.511 34.1501 275.884 24.8677 278.042C22.5478 278.582 20.2436 279.185 17.9356 279.763C17.6492 279.834 17.3511 279.701 17.2136 279.439V279.439C17.0859 279.196 17.1268 278.899 17.3149 278.7C18.4226 277.525 19.4571 276.418 20.701 275.383C27.727 269.54 34.9142 263.882 41.8566 257.943C45.9994 254.396 49.8616 250.508 53.694 246.621C54.464 245.84 54.9475 244.343 54.8699 243.222C52.9478 215.45 59.4067 189.389 70.9515 164.378C75.8045 153.86 80.8437 143.427 85.9319 132.69C86.1939 132.137 86.7673 131.815 87.3763 131.758C91.5415 131.369 92.2182 127.046 93.9159 123.882C95.0275 121.81 95.8551 119.586 96.7642 117.26C97.1499 116.273 98.407 116.002 99.1754 116.732C99.7264 117.255 100.264 117.766 100.829 118.304C101.421 118.867 102.354 118.859 102.957 118.309C104.394 116.997 105.862 115.771 106.917 114.259C111.239 108.082 115.489 101.846 119.423 95.4244C121.238 92.4611 123.256 90.6009 126.73 89.6291C138.306 86.3909 149.772 82.7775 161.192 79.3229C161.552 79.2138 161.911 79.0039 162.073 78.6638C162.093 78.6218 162.106 78.5809 162.11 78.5393C162.958 71.7066 163.513 71.1342 170.426 70.0014C177.786 68.797 182.424 64.8619 183.666 57.421C184.902 49.998 185.266 42.426 185.988 34.9136C186.591 28.5876 187.039 22.2438 187.785 15.9357C188.229 12.1729 189.241 10.3068 191.645 8.76379C192.359 8.30562 193.293 8.62945 193.68 9.38411C194.967 11.8897 196.382 14.3509 197.234 16.9911C199.64 24.4498 201.55 32.0636 203.89 39.5462C205.902 45.9735 208.021 52.3829 210.457 58.6612C213.716 67.0739 220.384 70.6393 229.135 70.7884C232.52 70.848 235.904 70.9672 239.283 70.8182C243.42 70.6393 247.264 71.5456 250.577 73.9186C259.537 80.3459 268.581 86.6718 277.201 93.5343C283.662 98.6819 289.568 104.529 295.994 110.371C296.379 110.721 296.916 110.835 297.428 110.749C300.534 110.232 303.294 111.812 306.077 113.715C306.691 114.134 306.898 114.942 306.572 115.609C305.713 117.373 304.86 119.12 303.967 120.954C303.579 121.752 303.962 122.708 304.77 123.075C311.172 125.98 315.693 131.059 320.712 135.497C322.497 137.071 324.413 138.508 326.305 139.956C329.869 142.687 333.814 143.253 338.148 142.162C346.529 140.052 354.904 137.911 363.345 136.081C369.892 134.66 376.089 133.875 382.977 134.827C383.018 134.833 383.058 134.847 383.092 134.87V134.87ZM205.994 316.949C205.996 316.947 205.999 316.946 206.002 316.946C212.859 316.946 219.717 317.023 226.574 316.898C228.407 316.862 230.424 316.594 232.03 315.783C240.626 311.448 249.276 307.197 257.591 302.368C266.169 297.389 266.891 294.915 264.348 285.214C262.056 276.48 257.824 268.58 253.347 260.853C248.052 251.707 243.921 242.34 243.659 231.513C243.521 225.831 241.886 220.381 239.181 215.283C236.788 210.77 233.081 208.635 228.084 208.57C214.265 208.391 200.732 210.043 187.57 214.496C153.544 226.021 132.818 254.008 132.245 288.953C132.108 297.383 135.761 303.107 143.134 306.446C148.273 308.777 153.628 310.715 159.024 312.373C174.334 317.076 190.14 317.512 205.987 316.952C205.99 316.952 205.993 316.95 205.994 316.949V316.949ZM84.579 226.941C84.5794 226.94 84.5803 226.939 84.5812 226.939C85.9713 226.826 86.9499 226.82 87.8987 226.665C99.9808 224.692 111.239 220.274 122.115 214.872C125.56 213.161 128.783 210.943 131.911 208.683C133.105 207.819 134.114 206.31 134.568 204.891C143.683 176.565 152.709 148.208 161.74 119.858C161.834 119.562 161.907 119.261 161.974 118.95C162.148 118.14 161.621 117.324 160.798 117.237C157.521 116.891 154.672 117.972 151.944 119.583C141.385 125.826 131.559 133.076 122.623 141.465C109.526 153.753 98.4526 167.508 91.8863 184.482C86.6584 197.995 84.7478 212.044 84.5739 226.94C84.5738 226.942 84.5777 226.943 84.579 226.941V226.941ZM305.815 180.455C305.816 180.456 305.816 180.458 305.814 180.458C304.855 180.458 303.966 180.327 303.126 180.482C298.834 181.245 294.506 181.883 290.28 182.938C281.194 185.21 272.455 188.447 264.307 193.14C259.746 195.769 258.928 197.498 259.842 202.631C260.17 204.486 260.504 206.358 261.095 208.141C264.754 219.248 268.139 230.463 272.3 241.38C275.929 250.902 280.394 260.113 284.65 269.385C285.189 270.554 286.085 271.558 287.081 272.683C287.792 273.486 289.113 273.371 289.628 272.43C294.273 263.941 297.755 255.771 299.95 247.056C305.358 225.598 306.224 203.723 306.033 181.746C306.033 181.377 305.914 181.003 305.813 180.457C305.813 180.455 305.814 180.454 305.815 180.455V180.455ZM164.468 194.088C164.468 194.091 164.471 194.094 164.474 194.094C165.098 194.178 165.568 194.296 166.038 194.296C175.697 194.302 185.29 193.634 194.685 191.196C201.073 189.538 207.132 187.136 212.63 183.415C216.916 180.512 218.891 176.529 218.133 171.425C217.638 168.104 217.059 164.729 215.978 161.569C210.666 146.086 202.261 132.116 194.106 118.033C192.859 115.875 190.698 115.94 189.361 118.033C188.674 119.112 188.113 120.305 187.689 121.515C185.684 127.221 183.636 132.915 181.798 138.674C176.115 156.525 170.521 174.412 164.904 192.281C164.731 192.823 164.636 193.396 164.468 194.087C164.468 194.087 164.468 194.088 164.468 194.088V194.088ZM224.377 112.862C224.377 112.861 224.375 112.86 224.374 112.861L223.669 113.599C223.565 113.708 223.529 113.866 223.576 114.01C227.709 126.739 231.663 139.533 236.065 152.173C237.713 156.907 240.25 161.367 242.691 165.779C244.918 169.809 248.458 171.288 253.204 170.859C264.929 169.805 274.521 163.688 284.428 158.75C284.88 158.525 285.196 158.091 285.241 157.589C285.615 153.382 284.421 149.924 282 146.873C280.335 144.78 278.657 142.633 276.669 140.869C263.537 129.189 248.655 120.382 232.114 114.45C229.661 113.568 226.963 113.377 224.379 112.864C224.378 112.864 224.377 112.863 224.377 112.862V112.862ZM105.935 281.417C106.307 281.253 106.568 280.916 106.679 280.526C109.284 271.391 111.892 262.362 114.397 253.299C114.719 252.137 114.812 250.913 114.928 249.561C115.008 248.62 114.237 247.806 113.295 247.879C105.503 248.486 98.4147 249.975 92.4951 255.046C90.2387 256.977 88.3643 259.511 88.9195 262.546C90.2745 269.987 93.4562 276.486 100.094 280.767C101.889 281.924 103.781 282.365 105.935 281.417Z" fill="black"/>
</svg>
