<svg width="400" height="400" viewBox="0 0 400 400" fill="none" xmlns="http://www.w3.org/2000/svg">
<mask id="mask0_2489_28625" style="mask-type:alpha" maskUnits="userSpaceOnUse" x="17" y="8" width="367" height="353">
<path d="M383.092 134.87C383.281 134.991 383.265 135.271 383.065 135.371C381.496 136.152 379.946 136.973 378.34 137.685C366.014 143.158 354.218 149.532 344.195 158.69C340.769 161.82 337.671 165.373 334.77 169.01C332.018 172.457 331.098 176.678 331.14 181.06C331.148 181.736 331.246 182.412 331.358 183.154C331.472 183.908 332.119 184.476 332.882 184.476H346.209C347.045 184.476 347.727 185.156 347.678 185.99C347.37 191.322 345.48 195.92 342.237 199.776C337.844 204.992 336.053 211.193 333.982 217.418C330.961 226.492 330.758 235.847 331.474 245.13C332.221 254.807 328.639 262.522 322.861 269.719C318.324 275.371 313.93 281.142 309.417 286.818C304.791 292.637 303.066 299.208 303.562 306.595C304.2 316.063 306.421 325.191 308.492 334.409C310.182 341.933 310.737 349.708 311.758 357.376C311.787 357.592 311.79 357.811 311.778 358.061C311.726 359.121 310.558 359.797 309.573 359.403C308.087 358.809 306.734 358.279 305.585 357.459C299.825 353.351 296.279 347.496 293.378 341.206C291.979 338.17 290.622 335.114 289.263 332.095C289.1 331.733 288.797 331.449 288.427 331.303C284.532 329.76 283.38 328.775 282.269 326.142C282.029 325.573 281.488 325.181 280.87 325.175C274.797 325.112 268.756 325.722 262.94 327.737C252.517 331.344 242.077 334.916 231.803 338.904C220.354 343.352 208.505 344.253 196.578 342.816C185.158 341.438 173.87 338.958 162.516 337.032C158.708 336.388 154.852 336.007 151.025 335.428C150.076 335.285 149.133 334.916 148.261 334.492C141.385 331.142 134.591 327.612 127.649 324.404C120.122 320.928 114.307 323.409 111.52 331.124C110.374 334.296 109.693 337.629 108.583 340.812C106.887 345.672 105.114 350.519 103.162 355.277C101.818 358.559 99.2952 360.285 95.5903 360.844C94.6768 360.982 93.9229 360.191 93.9984 359.27C94.2483 356.224 94.4161 353.28 94.9127 350.394C95.9753 344.235 97.7661 338.177 98.4168 331.982C99.0615 325.794 98.7451 319.497 98.6735 313.255C98.6615 312.349 97.8258 311.299 97.1154 310.572C92.0235 305.397 86.9316 300.221 81.7144 295.177C76.1927 289.835 70.8262 284.314 67.1371 277.565C63.7823 271.43 58.5411 270.553 52.7329 271.686C43.3848 273.511 34.1501 275.884 24.8677 278.042C22.5478 278.582 20.2436 279.185 17.9356 279.763C17.6492 279.834 17.3511 279.701 17.2136 279.439V279.439C17.0859 279.196 17.1268 278.899 17.3149 278.7C18.4226 277.525 19.4571 276.418 20.701 275.383C27.727 269.54 34.9142 263.882 41.8566 257.943C45.9994 254.396 49.8616 250.508 53.694 246.621C54.464 245.84 54.9475 244.343 54.8699 243.222C52.9478 215.45 59.4067 189.389 70.9515 164.378C75.8045 153.86 80.8437 143.427 85.9319 132.69C86.1939 132.137 86.7673 131.815 87.3763 131.758C91.5415 131.369 92.2182 127.046 93.9159 123.882C95.0275 121.81 95.8551 119.586 96.7642 117.26C97.1499 116.273 98.407 116.002 99.1754 116.732C99.7264 117.255 100.264 117.766 100.829 118.304C101.421 118.867 102.354 118.859 102.957 118.309C104.394 116.997 105.862 115.771 106.917 114.259C111.239 108.082 115.489 101.846 119.423 95.4244C121.238 92.4611 123.256 90.6009 126.73 89.6291C138.306 86.3909 149.772 82.7775 161.192 79.3229C161.552 79.2138 161.911 79.0039 162.073 78.6638C162.093 78.6218 162.106 78.5809 162.11 78.5393C162.958 71.7066 163.513 71.1342 170.426 70.0014C177.786 68.797 182.424 64.8619 183.666 57.421C184.902 49.998 185.266 42.426 185.988 34.9136C186.591 28.5876 187.039 22.2438 187.785 15.9357C188.229 12.1729 189.241 10.3068 191.645 8.76379C192.359 8.30562 193.293 8.62945 193.68 9.38411C194.967 11.8897 196.382 14.3509 197.234 16.9911C199.64 24.4498 201.55 32.0636 203.89 39.5462C205.902 45.9735 208.021 52.3829 210.457 58.6612C213.716 67.0739 220.384 70.6393 229.135 70.7884C232.52 70.848 235.904 70.9672 239.283 70.8182C243.42 70.6393 247.264 71.5456 250.577 73.9186C259.537 80.3459 268.581 86.6718 277.201 93.5343C283.662 98.6819 289.568 104.529 295.994 110.371C296.379 110.721 296.916 110.835 297.428 110.749C300.534 110.232 303.294 111.812 306.077 113.715C306.691 114.134 306.898 114.942 306.572 115.609C305.713 117.373 304.86 119.12 303.967 120.954C303.579 121.752 303.962 122.708 304.77 123.075C311.172 125.98 315.693 131.059 320.712 135.497C322.497 137.071 324.413 138.508 326.305 139.956C329.869 142.687 333.814 143.253 338.148 142.162C346.529 140.052 354.904 137.911 363.345 136.081C369.892 134.66 376.089 133.875 382.977 134.827C383.018 134.833 383.058 134.847 383.092 134.87V134.87ZM205.994 316.949C205.996 316.947 205.999 316.946 206.002 316.946C212.859 316.946 219.717 317.023 226.574 316.898C228.407 316.862 230.424 316.594 232.03 315.783C240.626 311.448 249.276 307.197 257.591 302.368C266.169 297.389 266.891 294.915 264.348 285.214C262.056 276.48 257.824 268.58 253.347 260.853C248.052 251.707 243.921 242.34 243.659 231.513C243.521 225.831 241.886 220.381 239.181 215.283C236.788 210.77 233.081 208.635 228.084 208.57C214.265 208.391 200.732 210.043 187.57 214.496C153.544 226.021 132.818 254.008 132.245 288.953C132.108 297.383 135.761 303.107 143.134 306.446C148.273 308.777 153.628 310.715 159.024 312.373C174.334 317.076 190.14 317.512 205.987 316.952C205.99 316.952 205.993 316.95 205.994 316.949V316.949ZM84.579 226.941C84.5794 226.94 84.5803 226.939 84.5812 226.939C85.9713 226.826 86.9499 226.82 87.8987 226.665C99.9808 224.692 111.239 220.274 122.115 214.872C125.56 213.161 128.783 210.943 131.911 208.683C133.105 207.819 134.114 206.31 134.568 204.891C143.683 176.565 152.709 148.208 161.74 119.858C161.834 119.562 161.907 119.261 161.974 118.95C162.148 118.14 161.621 117.324 160.798 117.237C157.521 116.891 154.672 117.972 151.944 119.583C141.385 125.826 131.559 133.076 122.623 141.465C109.526 153.753 98.4526 167.508 91.8863 184.482C86.6584 197.995 84.7478 212.044 84.5739 226.94C84.5738 226.942 84.5777 226.943 84.579 226.941V226.941ZM305.815 180.455C305.816 180.456 305.816 180.458 305.814 180.458C304.855 180.458 303.966 180.327 303.126 180.482C298.834 181.245 294.506 181.883 290.28 182.938C281.194 185.21 272.455 188.447 264.307 193.14C259.746 195.769 258.928 197.498 259.842 202.631C260.17 204.486 260.504 206.358 261.095 208.141C264.754 219.248 268.139 230.463 272.3 241.38C275.929 250.902 280.394 260.113 284.65 269.385C285.189 270.554 286.085 271.558 287.081 272.683C287.792 273.486 289.113 273.371 289.628 272.43C294.273 263.941 297.755 255.771 299.95 247.056C305.358 225.598 306.224 203.723 306.033 181.746C306.033 181.377 305.914 181.003 305.813 180.457C305.813 180.455 305.814 180.454 305.815 180.455V180.455ZM164.468 194.088C164.468 194.091 164.471 194.094 164.474 194.094C165.098 194.178 165.568 194.296 166.038 194.296C175.697 194.302 185.29 193.634 194.685 191.196C201.073 189.538 207.132 187.136 212.63 183.415C216.916 180.512 218.891 176.529 218.133 171.425C217.638 168.104 217.059 164.729 215.978 161.569C210.666 146.086 202.261 132.116 194.106 118.033C192.859 115.875 190.698 115.94 189.361 118.033C188.674 119.112 188.113 120.305 187.689 121.515C185.684 127.221 183.636 132.915 181.798 138.674C176.115 156.525 170.521 174.412 164.904 192.281C164.731 192.823 164.636 193.396 164.468 194.087C164.468 194.087 164.468 194.088 164.468 194.088V194.088ZM224.377 112.862C224.377 112.861 224.375 112.86 224.374 112.861L223.669 113.599C223.565 113.708 223.529 113.866 223.576 114.01C227.709 126.739 231.663 139.533 236.065 152.173C237.713 156.907 240.25 161.367 242.691 165.779C244.918 169.809 248.458 171.288 253.204 170.859C264.929 169.805 274.521 163.688 284.428 158.75C284.88 158.525 285.196 158.091 285.241 157.589C285.615 153.382 284.421 149.924 282 146.873C280.335 144.78 278.657 142.633 276.669 140.869C263.537 129.189 248.655 120.382 232.114 114.45C229.661 113.568 226.963 113.377 224.379 112.864C224.378 112.864 224.377 112.863 224.377 112.862V112.862ZM105.935 281.417C106.307 281.253 106.568 280.916 106.679 280.526C109.284 271.391 111.892 262.362 114.397 253.299C114.719 252.137 114.812 250.913 114.928 249.561C115.008 248.62 114.237 247.806 113.295 247.879C105.503 248.486 98.4147 249.975 92.4951 255.046C90.2387 256.977 88.3643 259.511 88.9195 262.546C90.2745 269.987 93.4562 276.486 100.094 280.767C101.889 281.924 103.781 282.365 105.935 281.417Z" fill="white"/>
</mask>
<g mask="url(#mask0_2489_28625)">
<path d="M153.917 295.637C153.584 300.236 152.365 305.002 153.085 309.379C154.914 320.462 146.657 319.575 140.507 320.185C133.802 320.85 128.205 327.555 120.78 323.731C121.112 323.288 121.389 322.9 121.722 322.457C130.422 316.472 135.132 305.611 146.657 302.675C148.874 302.176 148.763 295.526 153.917 295.637Z" fill="#F3AC49"/>
<path d="M13.5596 187.469C13.5596 125.344 13.5596 63.2195 13.5068 1.09485C13.5068 -0.698222 13.876 -1.06738 15.6691 -1.06738C140.077 -1.01465 264.537 -1.01465 388.944 -1.06738C390.737 -1.06738 391.107 -0.698222 391.107 1.09485C391.054 125.502 391.054 249.963 391.107 374.37C391.107 376.163 390.737 376.532 388.944 376.532C264.537 376.48 140.077 376.48 15.6691 376.532C13.876 376.532 13.5068 376.163 13.5068 374.37C13.5596 312.035 13.5596 249.752 13.5596 187.469ZM16.9875 204.608C16.9875 258.664 16.9348 312.72 16.9348 366.723C17.9895 368.78 14.1397 373.157 19.2025 373.157C129.74 373.263 240.278 373.263 350.815 373.21C351.765 373.21 353.61 371.892 353.505 371.575C351.554 362.979 356.933 363.559 362.576 363.823C368.693 364.139 374.864 363.77 381.034 363.928C383.249 363.981 383.776 363.348 383.776 361.133C383.671 336.136 383.723 311.191 383.723 286.193C383.671 192.532 383.671 98.87 383.618 5.20837C383.196 4.83921 382.827 4.20636 382.405 4.20636C371.066 4.20636 359.781 4.20636 348.442 4.36457C347.862 4.36457 346.754 6.15764 346.754 7.05418C346.649 38.8548 346.755 70.6027 347.176 102.351C347.282 109.945 343.116 112.951 337.156 114.744C335.152 115.271 333.359 115.535 331.355 116.062C323.708 116.062 315.798 113.689 312.581 125.08C310.524 132.2 303.879 138.001 299.291 144.382C297.129 145.965 295.177 147.969 292.804 149.076C281.887 154.35 271.551 146.123 259.896 147.758C247.028 149.551 238.574 153.084 238.152 166.637C238.152 167.27 244.701 180.276 232.577 172.82C232.05 172.504 231.312 172.808 230.627 172.808C221.82 166.954 211.272 172.966 202.254 168.536C201.885 167.851 201.516 167.165 201.094 166.479C201.147 162.946 201.463 159.413 201.147 155.932C200.672 151.027 201.357 148.232 207.475 149.287C211.114 149.92 217.02 151.133 218.339 147.125C223.138 132.622 230.363 119.385 236.586 105.62C240.172 97.657 231.892 90.0101 230.89 81.8885C229.888 74.0834 223.454 67.4385 225.933 59.106C229.414 47.6092 237.694 38.9603 244.391 29.3621C245.077 28.6765 245.762 27.9909 246.501 27.2526C252.249 18.7091 258.947 11.3259 269.283 8.26714C270.865 7.42334 274.346 8.95272 273.819 5.63027C273.397 2.78245 270.391 4.25909 268.703 4.25909C187.909 4.31183 107.116 4.47004 26.2693 3.99541C16.8293 3.94267 15.3526 7.21239 16.882 14.8593C16.882 75.982 16.882 137.157 16.882 198.28C16.9348 200.389 16.9875 202.499 16.9875 204.608ZM296.548 50.2461C296.443 50.2461 296.338 50.2461 296.179 50.2461C296.179 36.3762 296.179 22.5062 296.179 8.6363C296.179 7.10692 296.865 5.15563 293.964 5.20837C291.064 5.26111 291.908 7.31786 291.908 8.74177C291.697 35.7961 291.538 62.8503 291.327 89.9046C291.327 92.9107 292.593 94.8619 295.336 95.9167C295.546 96.0222 296.496 95.1256 296.496 94.7565C296.548 79.8845 296.548 65.0653 296.548 50.2461Z" fill="#F4ACBA"/>
<path d="M383.522 5.31348C383.575 98.9751 383.575 192.637 383.627 286.298C383.627 311.296 383.627 336.241 383.68 361.238C383.68 363.4 383.153 364.086 380.938 364.033C374.767 363.875 368.65 364.191 362.48 363.928C356.784 363.664 351.405 363.084 353.409 371.68C353.514 372.049 351.668 373.315 350.719 373.315C240.182 373.368 129.644 373.368 19.1065 373.262C14.0437 373.262 17.8408 368.885 16.8387 366.828C17.4189 366.248 17.999 365.668 18.5263 365.088C24.2747 358.707 30.0231 352.326 35.7187 345.944C56.1281 345.628 76.5902 345.522 96.9996 344.573C99.3728 344.468 99.9001 352.115 102.801 345.681C103.803 343.466 105.649 341.673 107.072 339.669C106.756 341.145 105.701 343.044 106.229 344.046C107.811 346.946 109.024 343.677 109.815 343.096C114.93 338.983 119.308 343.624 123.579 344.679C126.374 345.364 128.22 350.216 130.33 353.275C132.175 355.964 133.758 358.865 135.445 361.66C135.551 359.34 135.762 357.019 135.814 354.751C135.867 352.642 135.603 350.532 135.867 348.423C136.711 341.778 135.287 335.555 143.778 330.545C150.581 326.537 160.759 321.263 158.913 309.081C158.122 303.913 158.913 298.533 159.019 293.207C164.293 289.41 169.619 285.56 174.893 281.763C182.329 275.382 190.925 271.268 200.207 268.42C200.47 268.42 200.734 268.42 200.998 268.42C201.42 268.262 201.894 268.051 202.316 267.893C212.758 268.948 211.545 260.351 213.391 254.392C226.839 249.277 242.133 259.139 255.054 249.118C258.64 246.323 263.439 244.847 266.339 241.63C271.191 236.25 276.254 232.19 283.69 230.924C287.803 230.238 294.448 232.928 295.609 227.654C296.822 222.17 294.659 215.999 293.974 210.093C296.505 206.929 298.984 203.817 301.515 200.653C303.625 194.113 307.896 199.123 311.061 199.018C321.661 198.543 323.348 188.84 328.306 182.722C337.429 171.436 342.914 157.988 347.397 144.487C351.668 131.778 347.66 118.33 347.66 105.145C347.713 72.8173 347.66 40.5421 347.713 8.21403C347.713 7.37023 348.135 6.4737 348.346 5.6299C348.979 5.94632 349.612 6.21001 350.192 6.52644C349.77 6.68465 349.295 6.84286 348.873 7.00107C349.032 7.15928 349.137 7.3175 349.295 7.52845C349.559 7.21202 349.875 6.8956 350.139 6.52644C361.372 5.99906 372.447 5.6299 383.522 5.31348Z" fill="#F18928" stroke="#F18928" stroke-width="0.755388"/>
<path d="M16.7871 198.279C16.7871 137.157 16.7871 75.9814 16.7871 14.8588C17.0508 14.8588 17.3672 14.8061 17.6309 14.8061C49.6952 14.8061 81.7596 15.1225 113.824 14.5951C122.578 14.4369 128.643 16.8628 134.497 23.244C140.087 29.2561 147.154 33.897 153.588 39.118C159.284 44.1281 156.647 51.5113 156.488 56.8378C156.067 72.1843 156.067 87.7946 151.109 102.772C149.896 106.516 150.055 110.788 148.789 114.532C146.152 122.443 150.898 131.25 144.834 138.95C139.982 145.12 136.554 152.451 132.493 159.254C128.907 165.002 123.686 169.854 123 177.132C122.631 177.237 122.262 177.29 121.893 177.395C114.088 175.866 104.753 184.357 98.3719 173.651C98.3719 173.651 97.95 173.809 97.8972 173.915C95.9987 179.874 89.7757 180.085 85.7149 181.14C67.7842 185.833 49.2206 185.622 30.9207 184.304C19.1076 183.46 15.3632 187.152 17.5254 198.227C17.3145 198.279 17.0508 198.279 16.7871 198.279Z" fill="#66BCB2" stroke="#66BCB2" stroke-width="0.755388"/>
<path d="M132.545 159.202C136.606 152.399 140.034 145.068 144.886 138.898C150.951 131.198 146.204 122.391 148.841 114.48C150.107 110.736 149.896 106.517 151.162 102.72C156.066 87.7953 156.066 72.1323 156.541 56.7857C156.699 51.4065 159.283 44.076 153.64 39.0659C161.34 42.5993 171.677 38.2221 177.319 48.8223C182.066 57.7349 189.027 46.5546 195.092 48.6641C196.199 45.078 199.258 42.5993 199.364 38.1166C199.469 34.5832 200.471 26.8308 204.743 27.9383C217.98 31.419 231.217 27.1473 244.243 29.5204C237.546 39.1186 229.213 47.7676 225.785 59.2643C223.306 67.5441 229.74 74.2417 230.742 82.0469C231.744 90.1684 240.024 97.8154 236.438 105.779C230.215 119.543 222.99 132.833 218.191 147.283C216.873 151.291 210.966 150.078 207.327 149.445C201.157 148.391 200.524 151.133 200.999 156.09C201.315 159.571 200.999 163.104 200.946 166.638C193.51 166.268 186.074 166.11 178.691 165.425C176.476 165.214 174.366 163.737 172.204 162.841C173.259 160.731 172.257 157.409 175.843 156.723C176.212 156.67 176.845 155.352 176.687 155.088C174.63 152.24 172.468 149.498 170.253 146.808C170.2 146.756 168.934 147.441 168.46 147.969C158.861 159.043 147.892 166.163 132.545 159.202Z" fill="#7EBAD2" stroke="#7EBAD2" stroke-width="0.755388"/>
<path d="M244.296 29.5207C231.27 27.2003 218.032 31.4193 204.795 27.9386C200.471 26.8311 199.522 34.5835 199.416 38.1169C199.258 42.5996 196.252 45.0783 195.144 48.6644C189.08 46.5549 182.118 57.7352 177.372 48.8226C171.729 38.2224 161.392 42.5996 153.693 39.0662C147.259 33.8452 140.139 29.2043 134.602 23.1923C128.748 16.811 122.63 14.3851 113.929 14.5433C81.759 15.1234 49.6947 14.807 17.6303 14.807C19.3179 11.8537 13.9387 5.47248 20.7418 5.41975C100.323 5.15606 179.956 5.2088 259.537 5.41975C262.754 5.41975 265.918 7.37103 269.135 8.42578C258.798 11.4318 252.101 18.8678 246.352 27.4112C245.667 28.0968 244.981 28.7824 244.296 29.5207Z" fill="#6E9ACA" stroke="#87ADD4" stroke-width="0.755388"/>
<path d="M234.697 227.707C235.224 222.275 237.861 219.586 243.609 219.164C249.621 218.742 245.824 213.046 247.406 209.988C251.045 202.868 253.524 195.01 253.155 186.678C255.475 185.834 257.954 185.306 260.011 184.041C267.183 179.611 272.299 172.913 281.528 170.382C286.59 168.958 291.759 169.327 296.505 167.692C305.207 164.686 304.785 155.246 308.635 148.759C313.381 144.962 315.543 139.741 318.286 134.468C320.817 129.669 316.967 120.492 326.618 120.018C329.466 119.859 330.521 118.435 330.995 116.01C332.999 115.482 335.047 114.995 337.051 114.468C341.797 137.778 331.945 156.776 314.858 169.802C303.044 178.767 303.414 189.262 301.515 200.548C298.984 203.712 296.505 206.823 293.974 209.988C291.284 215.103 286.485 212.519 282.582 212.994C279.102 213.415 275.621 212.413 272.404 215.103C261.593 224.227 249.041 228.815 234.697 227.707Z" fill="#F3AC49" stroke="#F3AC49" stroke-width="0.755388"/>
<path d="M308.796 148.672C304.946 155.159 305.293 164.631 296.591 167.69C291.845 169.325 286.655 168.942 281.592 170.366C272.363 172.898 267.234 179.613 260.061 184.043C258.004 185.309 255.432 185.846 253.164 186.69C245.623 182.102 238.085 177.374 230.491 172.786C231.176 172.786 232.073 172.469 232.547 172.786C244.255 180.011 237.979 167.248 237.979 166.616C238.401 153.062 246.945 149.529 259.76 147.736C271.415 146.101 281.699 154.328 292.668 149.054C295.041 147.894 296.993 145.942 299.155 144.36C302.372 145.784 305.631 147.248 308.796 148.672Z" fill="#FBCF67" stroke="#FBCF67" stroke-width="0.755388" stroke-linejoin="bevel"/>
<path d="M213.373 254.262C211.471 260.285 212.739 268.843 202.279 267.787C202.053 267.166 201.101 267.83 200.958 268.368C200.694 268.368 200.296 268.18 200.032 268.18C198.447 238.014 199.743 207.826 194.777 177.871C195.199 173.17 198.158 170.422 202.173 168.468C211.207 172.958 221.773 166.936 230.595 172.747C238.15 177.343 245.553 182.078 253.16 186.674C253.53 195.021 251.198 202.701 247.553 209.886C245.968 212.95 249.772 218.655 243.75 219.078C237.991 219.448 235.35 222.195 234.821 227.636C227.584 236.512 220.452 245.387 213.373 254.262Z" fill="#8D888C" stroke="#8D888C" stroke-width="0.755388"/>
<path d="M16.7871 198.28C17.0508 198.28 17.3145 198.228 17.5782 198.228C49.9589 199.388 82.3397 200.917 114.668 197.226C105.28 209.197 95.9987 219.164 77.8043 217.582C58.1332 215.895 38.093 218.215 18.2638 218.848C17.7891 214.102 17.3672 209.355 16.8926 204.609C16.8398 202.499 16.7871 200.39 16.7871 198.28Z" fill="#5E5F97" stroke="#5E5F97" stroke-width="0.755388"/>
<path d="M301.515 200.547C303.414 189.262 303.045 178.767 314.858 169.801C331.945 156.775 341.806 137.79 337.007 114.48C342.967 112.687 346.869 110.103 346.764 102.509C346.342 70.7606 346.606 38.96 346.658 7.21208C346.658 6.2628 347.713 4.52247 348.346 4.52247C359.684 4.31152 370.97 4.31152 382.309 4.36426C382.731 4.36426 383.1 4.99711 383.522 5.36627C372.447 5.68269 361.372 6.05186 350.297 6.36828C349.664 6.05186 349.032 5.78817 348.451 5.47175C348.24 6.31554 347.819 7.21208 347.819 8.05588C347.766 40.3839 347.819 72.6592 347.766 104.987C347.713 118.119 351.774 131.62 347.502 144.329C342.967 157.83 337.535 171.278 328.411 182.564C323.454 188.681 321.766 198.438 311.166 198.86C307.896 199.018 303.625 194.008 301.515 200.547Z" fill="#F6A453"/>
<path d="M202.329 168.41C198.373 170.361 195.249 173.335 194.774 178.029C192.665 179.453 190.502 180.93 188.393 182.354C177.845 182.037 167.351 181.668 156.803 181.352C154.694 181.035 152.584 180.666 150.475 180.35C141.773 175.339 132.228 177.818 123.051 177.08C123.737 169.802 128.958 164.95 132.544 159.202C147.891 166.11 158.807 158.991 168.511 147.916C168.986 147.389 170.251 146.703 170.304 146.756C172.519 149.445 174.681 152.188 176.738 155.036C176.896 155.299 176.316 156.565 175.894 156.67C172.308 157.356 173.363 160.678 172.255 162.788C174.417 163.684 176.527 165.161 178.742 165.372C186.125 166.005 193.771 166.104 201.207 166.473C201.576 167.159 201.96 167.724 202.329 168.41Z" fill="#87ADD4"/>
<path d="M296.646 50.1839C296.646 65.0648 296.567 80.3541 296.514 95.2349C296.514 95.6586 295.561 96.5059 295.349 96.4C292.649 95.3409 291.325 93.4344 291.325 90.3629C291.537 63.1962 291.626 36.0037 291.838 8.8369C291.838 7.40708 291.039 5.23168 293.952 5.17873C296.811 5.12577 296.264 7.09306 296.317 8.6288C296.317 22.5564 296.275 36.2034 296.275 50.131C296.381 50.1839 296.487 50.1839 296.646 50.1839Z" fill="#DDC4E0"/>
<path d="M308.636 148.812C305.471 147.388 302.202 145.701 299.038 144.277C303.626 137.896 310.165 132.147 312.222 125.028C315.492 113.689 323.849 115.946 331.443 115.893C330.969 118.319 329.573 119.912 326.725 120.018C317.074 120.492 321.082 129.721 318.55 134.52C315.861 139.847 313.382 145.015 308.636 148.812Z" fill="#F8C9D1" stroke="#F8C9D1" stroke-width="0.755388"/>
<path d="M269.135 8.42493C265.918 7.37018 262.753 5.4189 259.536 5.4189C179.956 5.26069 100.322 5.15521 20.7414 5.4189C13.9383 5.4189 19.2648 11.8001 17.6299 14.8062C17.3662 14.8062 17.0498 14.8589 16.7861 14.8589C15.204 7.21197 16.6807 3.94225 26.1206 3.99499C106.914 4.46963 187.761 4.25868 268.554 4.36415C270.295 4.36415 273.248 2.88751 273.67 5.73533C274.25 9.11052 270.769 7.58113 269.135 8.42493Z" fill="#7EBAD2" stroke="#7EBAD2" stroke-width="0.755388"/>
<path d="M16.8398 204.608C17.3145 209.355 17.7364 214.101 18.211 218.847C18.0001 222.064 17.5782 225.281 17.5782 228.498C17.5254 273.009 17.5254 317.519 17.5782 362.03C17.5782 363.032 18.1583 364.034 18.4747 365.036C17.8946 365.616 17.3145 366.196 16.7871 366.776C16.7871 312.72 16.8398 258.664 16.8398 204.608Z" fill="#9B8BC1"/>
<path d="M244.296 29.5206C244.982 28.835 245.668 28.1495 246.406 27.4111C245.668 28.0967 244.982 28.7823 244.296 29.5206Z" fill="#7EBAD2"/>
<path d="M18.4737 365.035C18.1573 364.033 17.5772 363.031 17.5772 362.029C17.5244 317.519 17.5244 273.009 17.5772 228.498C17.5772 225.281 17.9991 222.064 18.21 218.847C38.092 218.267 58.0795 215.894 77.7505 217.582C95.9449 219.164 105.227 209.196 114.614 197.225C114.878 197.172 115.194 197.119 115.458 197.014C119.149 195.643 120.89 197.752 124.107 199.651C136.605 206.929 150.212 203.184 162.183 197.383C170.199 193.533 175.684 195.801 178.479 201.76C185.757 217.529 182.592 234.879 184.491 251.492C186.653 270.161 175.367 265.678 165.717 265.731C159.283 265.784 152.901 265.836 146.467 265.678C145.096 265.625 143.514 265.045 142.459 264.149C135.34 258.453 126.955 265.362 119.677 261.776C111.872 257.926 106.651 267.629 99.4783 265.52C97.2634 264.887 95.6285 260.615 93.73 260.668C82.3387 260.879 70.8419 260.932 61.191 268.842C57.0247 272.27 50.0107 273.009 49.6942 279.864C49.1669 290.465 49.2723 301.118 49.3251 311.718C49.3778 321.474 49.4833 321.474 55.0734 323.478C55.3899 323.584 55.4688 324.384 55.627 324.859C48.9821 331.873 42.3637 338.878 35.7188 345.839C29.9704 352.273 24.2221 358.654 18.4737 365.035Z" fill="#513F92" stroke="#513F92" stroke-width="0.755388"/>
<path d="M55.6001 324.902C55.4419 324.428 55.3892 323.637 55.0727 323.531C49.4826 321.527 49.3771 321.58 49.3244 311.771C49.2716 301.171 49.2189 290.518 49.6935 279.917C50.01 273.062 57.024 272.323 61.1903 268.895C70.8412 260.985 82.338 260.879 93.7293 260.721C95.5751 260.668 97.2627 264.94 99.4776 265.573C106.65 267.682 111.871 257.979 119.676 261.829C126.901 265.415 135.339 258.506 142.459 264.202C143.513 265.046 145.095 265.678 146.467 265.731C152.901 265.889 159.282 265.837 165.716 265.784C175.367 265.731 186.6 270.214 184.49 251.545C182.592 234.932 185.756 217.582 178.478 201.813C175.736 195.854 170.198 193.586 162.182 197.436C150.211 203.237 136.605 206.982 124.106 199.704C120.889 197.805 119.149 195.696 115.457 197.067C117.619 190.528 119.775 183.888 121.937 177.349C122.306 177.243 122.687 177.185 123.056 177.079C132.232 177.817 141.769 175.326 150.471 180.336C152.581 180.652 154.705 181.027 156.814 181.343C158.238 183.769 185.77 184.583 188.364 182.365C190.473 180.941 192.671 179.416 194.781 177.992C199.738 207.894 198.518 238.308 200.101 268.421C190.819 271.216 182.17 275.329 174.787 281.763C165.927 281.394 156.856 281.921 148.207 280.392C135.866 278.23 126.374 283.556 116.828 289.621C112.873 292.1 108.548 292.733 104.382 291.52C90.0904 287.459 77.0642 296.161 77.8026 310.611C78.3299 320.314 77.0642 326.063 65.462 322.793C63.0888 322.107 60.1883 323.215 57.5514 323.479C56.9186 323.9 56.233 324.375 55.6001 324.902Z" fill="#5E5F97" stroke="#5E5F97" stroke-width="0.755388"/>
<path d="M57.6045 323.426C60.2414 323.162 63.1419 322.054 65.5151 322.74C77.1701 326.01 78.383 320.314 77.8557 310.558C77.1173 296.108 90.0907 287.406 104.435 291.467C108.602 292.68 112.926 292.047 116.881 289.568C126.427 283.556 135.92 278.177 148.26 280.339C156.909 281.869 165.98 281.341 174.84 281.71C169.566 285.507 164.24 289.357 158.966 293.154C157.12 294.262 155.327 295.369 153.481 296.424C148.629 296.319 148.682 302.647 146.52 303.174C135.55 305.97 131.068 316.306 122.788 322.002C121.944 320.472 121.364 320.05 119.36 321.158C116.248 322.846 112.662 324.375 109.182 324.533C93.255 325.219 77.381 325.43 61.4543 325.588C60.1359 325.641 58.8702 324.164 57.6045 323.426Z" fill="#8D888C" stroke="#8D888C" stroke-width="0.755388"/>
<path d="M234.698 227.707C249.043 228.867 261.594 224.226 272.458 215.103C275.675 212.413 279.156 213.415 282.636 212.993C286.539 212.519 291.338 215.103 294.028 209.987C294.713 215.894 296.823 222.064 295.662 227.549C294.502 232.875 287.857 230.133 283.744 230.819C276.308 232.084 271.245 236.092 266.393 241.524C263.44 244.794 258.641 246.271 255.107 249.013C242.187 259.086 226.893 249.171 213.445 254.287C220.459 245.427 227.578 236.567 234.698 227.707Z" fill="#F6A453"/>
<path d="M57.6046 323.426C58.9001 324.192 60.1827 325.633 61.4484 325.58C77.3751 325.369 93.3018 325.163 109.176 324.53C112.656 324.372 116.233 322.859 119.344 321.118C121.348 320.011 122.007 320.442 122.851 321.971C122.535 322.393 122.208 322.846 121.891 323.268C116.934 328.7 112.03 334.184 107.072 339.616C105.596 341.62 103.803 343.413 102.801 345.628C99.9 352.062 99.4254 344.415 96.9994 344.521C76.5901 345.523 56.0886 345.558 35.6792 345.874C42.3241 338.86 48.9365 331.858 55.5814 324.896C56.2142 324.369 56.919 323.901 57.6046 323.426Z" fill="#B59259" stroke="#B59259" stroke-width="0.755388"/>
<path d="M107.072 339.563C112.03 334.131 116.934 328.647 121.892 323.215C128.958 326.853 134.285 320.472 140.666 319.839C146.52 319.259 154.378 320.103 152.637 309.556C151.952 305.337 153.112 300.854 153.429 296.477C155.274 295.369 157.067 294.262 158.913 293.207C158.86 298.481 158.017 303.913 158.808 309.081C160.654 321.263 150.475 326.537 143.672 330.545C135.181 335.555 136.605 341.778 135.762 348.423C135.498 350.48 135.762 352.642 135.709 354.752C135.656 357.072 135.445 359.392 135.34 361.66C133.652 358.865 132.07 355.965 130.224 353.275C128.115 350.163 126.269 345.364 123.474 344.679C119.202 343.624 114.825 339.036 109.709 343.097C108.971 343.677 107.758 346.946 106.123 344.046C105.701 342.991 106.756 341.093 107.072 339.563Z" fill="#F8B570"/>
<path d="M121.944 177.343C119.782 183.882 117.673 190.475 115.51 197.014C115.247 197.067 114.93 197.119 114.666 197.225C82.3385 200.969 49.9577 199.387 17.5769 198.227C15.4147 187.205 19.2118 183.513 30.9722 184.304C49.2721 185.57 67.8357 185.781 85.7664 181.14C89.8272 180.085 96.0502 179.822 97.9487 173.915C98.0015 173.757 98.4234 173.651 98.4234 173.651C104.805 184.304 114.192 175.866 121.944 177.343Z" fill="#8D888C" stroke="#8D888C" stroke-width="0.755388"/>
<path d="M188.393 182.353C186.125 184.673 158.28 183.777 156.803 181.351C167.351 181.667 177.898 182.036 188.393 182.353Z" fill="#7D89C1" stroke="#7D89C1" stroke-width="0.755388"/>
<path d="M156.802 181.352C154.692 181.035 152.583 180.666 150.473 180.35C152.583 180.666 154.692 181.035 156.802 181.352Z" fill="#7D89C1"/>
</g>
</svg>
